<mxfile host="app.diagrams.net" modified="2022-03-19T02:58:09.866Z" agent="5.0 (Macintosh; Intel Mac OS X 10_15_7) AppleWebKit/537.36 (KHTML, like Gecko) Chrome/99.0.4844.74 Safari/537.36" etag="22-IvmC1py3Pb26PT3Im" version="17.1.3" type="github">
  <diagram id="odk4SWSnApb-LSzLbIC0" name="Page-1">
    <mxGraphModel dx="1426" dy="769" grid="1" gridSize="10" guides="1" tooltips="1" connect="1" arrows="1" fold="1" page="1" pageScale="1" pageWidth="827" pageHeight="1169" math="0" shadow="0">
      <root>
        <mxCell id="0" />
        <mxCell id="1" parent="0" />
        <mxCell id="ZkykrI-qIr06TGxrH-Ft-45" value="技术公益平台" style="rounded=1;arcSize=10;dashed=1;strokeColor=#ff0000;fillColor=none;gradientColor=none;dashPattern=8 4;strokeWidth=2;verticalAlign=top;fontSize=20;fontColor=#FF3333;labelBackgroundColor=default;" vertex="1" parent="1">
          <mxGeometry x="90" y="570" width="640" height="200" as="geometry" />
        </mxCell>
        <mxCell id="ZkykrI-qIr06TGxrH-Ft-35" value="公益机构" style="rounded=1;arcSize=10;strokeColor=none;fillColor=#DBDBDB;gradientColor=none;fontSize=20;fontColor=#3333FF;verticalAlign=top;" vertex="1" parent="1">
          <mxGeometry x="300" y="70" width="250" height="440" as="geometry" />
        </mxCell>
        <mxCell id="ZkykrI-qIr06TGxrH-Ft-37" value="" style="rounded=1;whiteSpace=wrap;html=1;" vertex="1" parent="1">
          <mxGeometry x="350" y="350" width="160" height="130" as="geometry" />
        </mxCell>
        <mxCell id="ZkykrI-qIr06TGxrH-Ft-16" value="公益服务" style="rounded=1;arcSize=10;dashed=1;strokeColor=#ff0000;fillColor=none;gradientColor=none;dashPattern=8 4;strokeWidth=2;verticalAlign=top;fontSize=20;fontColor=#FF3333;labelBackgroundColor=default;" vertex="1" parent="1">
          <mxGeometry x="90" y="120.5" width="190" height="359.5" as="geometry" />
        </mxCell>
        <mxCell id="ZkykrI-qIr06TGxrH-Ft-26" style="edgeStyle=orthogonalEdgeStyle;rounded=0;orthogonalLoop=1;jettySize=auto;html=1;entryX=0;entryY=0.5;entryDx=0;entryDy=0;fontSize=20;fontColor=#FF3333;" edge="1" parent="1" source="ZkykrI-qIr06TGxrH-Ft-2" target="ZkykrI-qIr06TGxrH-Ft-3">
          <mxGeometry relative="1" as="geometry" />
        </mxCell>
        <mxCell id="ZkykrI-qIr06TGxrH-Ft-2" value="求助人" style="shape=umlActor;verticalLabelPosition=bottom;verticalAlign=top;html=1;outlineConnect=0;" vertex="1" parent="1">
          <mxGeometry x="30" y="290" width="30" height="60" as="geometry" />
        </mxCell>
        <mxCell id="ZkykrI-qIr06TGxrH-Ft-18" style="edgeStyle=orthogonalEdgeStyle;rounded=0;orthogonalLoop=1;jettySize=auto;html=1;fontSize=20;fontColor=#FF3333;" edge="1" parent="1" source="ZkykrI-qIr06TGxrH-Ft-3" target="ZkykrI-qIr06TGxrH-Ft-7">
          <mxGeometry relative="1" as="geometry" />
        </mxCell>
        <mxCell id="ZkykrI-qIr06TGxrH-Ft-3" value="&lt;font style=&quot;font-size: 20px&quot; color=&quot;#ff3333&quot;&gt;救助入口&lt;/font&gt;" style="rounded=0;whiteSpace=wrap;html=1;" vertex="1" parent="1">
          <mxGeometry x="120" y="180" width="40" height="280" as="geometry" />
        </mxCell>
        <mxCell id="ZkykrI-qIr06TGxrH-Ft-23" style="edgeStyle=orthogonalEdgeStyle;rounded=0;orthogonalLoop=1;jettySize=auto;html=1;exitX=1;exitY=0.5;exitDx=0;exitDy=0;entryX=0;entryY=0;entryDx=0;entryDy=30;entryPerimeter=0;fontSize=20;fontColor=#FF3333;" edge="1" parent="1" source="ZkykrI-qIr06TGxrH-Ft-5" target="ZkykrI-qIr06TGxrH-Ft-11">
          <mxGeometry relative="1" as="geometry" />
        </mxCell>
        <mxCell id="ZkykrI-qIr06TGxrH-Ft-5" value="" style="rounded=1;whiteSpace=wrap;html=1;" vertex="1" parent="1">
          <mxGeometry x="350" y="140" width="160" height="190" as="geometry" />
        </mxCell>
        <mxCell id="ZkykrI-qIr06TGxrH-Ft-21" style="edgeStyle=orthogonalEdgeStyle;rounded=0;orthogonalLoop=1;jettySize=auto;html=1;entryX=-0.008;entryY=0.563;entryDx=0;entryDy=0;entryPerimeter=0;fontSize=20;fontColor=#FF3333;" edge="1" parent="1" source="ZkykrI-qIr06TGxrH-Ft-6" target="ZkykrI-qIr06TGxrH-Ft-14">
          <mxGeometry relative="1" as="geometry" />
        </mxCell>
        <mxCell id="ZkykrI-qIr06TGxrH-Ft-6" value="宝贝回家" style="rounded=1;whiteSpace=wrap;html=1;" vertex="1" parent="1">
          <mxGeometry x="380" y="360" width="100" height="50" as="geometry" />
        </mxCell>
        <mxCell id="ZkykrI-qIr06TGxrH-Ft-19" value="&lt;font style=&quot;font-size: 15px&quot;&gt;紧急寻人&lt;/font&gt;" style="edgeStyle=orthogonalEdgeStyle;rounded=0;orthogonalLoop=1;jettySize=auto;html=1;entryX=0;entryY=0.5;entryDx=0;entryDy=0;fontSize=20;fontColor=#FF3333;exitX=0.5;exitY=0;exitDx=0;exitDy=0;" edge="1" parent="1" source="ZkykrI-qIr06TGxrH-Ft-7" target="ZkykrI-qIr06TGxrH-Ft-5">
          <mxGeometry relative="1" as="geometry" />
        </mxCell>
        <mxCell id="ZkykrI-qIr06TGxrH-Ft-20" value="&lt;font style=&quot;font-size: 15px&quot;&gt;非紧急寻人&lt;/font&gt;" style="edgeStyle=orthogonalEdgeStyle;rounded=0;orthogonalLoop=1;jettySize=auto;html=1;entryX=0;entryY=0.5;entryDx=0;entryDy=0;fontSize=20;fontColor=#FF3333;exitX=0.5;exitY=1;exitDx=0;exitDy=0;" edge="1" parent="1" source="ZkykrI-qIr06TGxrH-Ft-7" target="ZkykrI-qIr06TGxrH-Ft-6">
          <mxGeometry x="-0.4054" y="-15" relative="1" as="geometry">
            <mxPoint as="offset" />
          </mxGeometry>
        </mxCell>
        <mxCell id="ZkykrI-qIr06TGxrH-Ft-7" value="客服系统" style="ellipse;whiteSpace=wrap;html=1;" vertex="1" parent="1">
          <mxGeometry x="180" y="280" width="80" height="80" as="geometry" />
        </mxCell>
        <mxCell id="ZkykrI-qIr06TGxrH-Ft-8" value="邯郸红十字救援队" style="rounded=1;whiteSpace=wrap;html=1;" vertex="1" parent="1">
          <mxGeometry x="380" y="210" width="100" height="50" as="geometry" />
        </mxCell>
        <mxCell id="ZkykrI-qIr06TGxrH-Ft-9" value="聊城蓝天救援队" style="rounded=1;whiteSpace=wrap;html=1;" vertex="1" parent="1">
          <mxGeometry x="380" y="150" width="100" height="50" as="geometry" />
        </mxCell>
        <mxCell id="ZkykrI-qIr06TGxrH-Ft-10" value="......" style="rounded=1;whiteSpace=wrap;html=1;" vertex="1" parent="1">
          <mxGeometry x="380" y="270" width="100" height="50" as="geometry" />
        </mxCell>
        <mxCell id="ZkykrI-qIr06TGxrH-Ft-24" style="edgeStyle=orthogonalEdgeStyle;rounded=0;orthogonalLoop=1;jettySize=auto;html=1;fontSize=20;fontColor=#FF3333;" edge="1" parent="1" source="ZkykrI-qIr06TGxrH-Ft-11" target="ZkykrI-qIr06TGxrH-Ft-12">
          <mxGeometry relative="1" as="geometry" />
        </mxCell>
        <mxCell id="ZkykrI-qIr06TGxrH-Ft-11" value="救援调度系统" style="shape=cube;whiteSpace=wrap;html=1;boundedLbl=1;backgroundOutline=1;darkOpacity=0.05;darkOpacity2=0.1;" vertex="1" parent="1">
          <mxGeometry x="595" y="224" width="100" height="80" as="geometry" />
        </mxCell>
        <mxCell id="ZkykrI-qIr06TGxrH-Ft-12" value="被救助人" style="shape=umlActor;verticalLabelPosition=bottom;verticalAlign=top;html=1;outlineConnect=0;" vertex="1" parent="1">
          <mxGeometry x="775" y="234" width="30" height="60" as="geometry" />
        </mxCell>
        <mxCell id="ZkykrI-qIr06TGxrH-Ft-13" value="被救助人" style="shape=umlActor;verticalLabelPosition=bottom;verticalAlign=top;html=1;outlineConnect=0;" vertex="1" parent="1">
          <mxGeometry x="775" y="384" width="30" height="60" as="geometry" />
        </mxCell>
        <mxCell id="ZkykrI-qIr06TGxrH-Ft-22" style="edgeStyle=orthogonalEdgeStyle;rounded=0;orthogonalLoop=1;jettySize=auto;html=1;exitX=0;exitY=0;exitDx=120;exitDy=50;exitPerimeter=0;fontSize=20;fontColor=#FF3333;" edge="1" parent="1" source="ZkykrI-qIr06TGxrH-Ft-14" target="ZkykrI-qIr06TGxrH-Ft-13">
          <mxGeometry relative="1" as="geometry" />
        </mxCell>
        <mxCell id="ZkykrI-qIr06TGxrH-Ft-14" value="走访系统" style="shape=cube;whiteSpace=wrap;html=1;boundedLbl=1;backgroundOutline=1;darkOpacity=0.05;darkOpacity2=0.1;" vertex="1" parent="1">
          <mxGeometry x="595" y="364" width="120" height="80" as="geometry" />
        </mxCell>
        <mxCell id="ZkykrI-qIr06TGxrH-Ft-27" value="" style="shape=flexArrow;endArrow=classic;html=1;rounded=0;fontSize=20;fontColor=#FF3333;" edge="1" parent="1">
          <mxGeometry width="50" height="50" relative="1" as="geometry">
            <mxPoint x="168" y="567" as="sourcePoint" />
            <mxPoint x="168" y="487" as="targetPoint" />
          </mxGeometry>
        </mxCell>
        <mxCell id="ZkykrI-qIr06TGxrH-Ft-28" value="" style="shape=flexArrow;endArrow=classic;html=1;rounded=0;fontSize=20;fontColor=#FF3333;" edge="1" parent="1">
          <mxGeometry width="50" height="50" relative="1" as="geometry">
            <mxPoint x="645.5" y="566" as="sourcePoint" />
            <mxPoint x="645.5" y="486" as="targetPoint" />
          </mxGeometry>
        </mxCell>
        <mxCell id="ZkykrI-qIr06TGxrH-Ft-29" value="云计算" style="rounded=1;whiteSpace=wrap;html=1;strokeColor=#7F00FF;" vertex="1" parent="1">
          <mxGeometry x="190" y="700" width="100" height="50" as="geometry" />
        </mxCell>
        <mxCell id="ZkykrI-qIr06TGxrH-Ft-31" value="大数据" style="rounded=1;whiteSpace=wrap;html=1;strokeColor=#7F00FF;" vertex="1" parent="1">
          <mxGeometry x="360" y="700" width="100" height="50" as="geometry" />
        </mxCell>
        <mxCell id="ZkykrI-qIr06TGxrH-Ft-32" value="人工智能" style="rounded=1;whiteSpace=wrap;html=1;strokeColor=#7F00FF;" vertex="1" parent="1">
          <mxGeometry x="520" y="700" width="100" height="50" as="geometry" />
        </mxCell>
        <mxCell id="ZkykrI-qIr06TGxrH-Ft-33" value="任务管理" style="rounded=1;arcSize=10;dashed=1;strokeColor=#ff0000;fillColor=none;gradientColor=none;dashPattern=8 4;strokeWidth=2;fontSize=20;fontColor=#FF3333;verticalAlign=top;" vertex="1" parent="1">
          <mxGeometry x="575" y="134" width="140" height="349.5" as="geometry" />
        </mxCell>
        <mxCell id="ZkykrI-qIr06TGxrH-Ft-38" value="......" style="rounded=1;whiteSpace=wrap;html=1;" vertex="1" parent="1">
          <mxGeometry x="380" y="420" width="100" height="50" as="geometry" />
        </mxCell>
        <mxCell id="ZkykrI-qIr06TGxrH-Ft-41" value="求助人" style="shape=umlActor;verticalLabelPosition=bottom;verticalAlign=top;html=1;outlineConnect=0;" vertex="1" parent="1">
          <mxGeometry x="10" y="265" width="30" height="60" as="geometry" />
        </mxCell>
        <mxCell id="ZkykrI-qIr06TGxrH-Ft-42" style="edgeStyle=orthogonalEdgeStyle;rounded=0;orthogonalLoop=1;jettySize=auto;html=1;entryX=0;entryY=0.5;entryDx=0;entryDy=0;fontSize=20;fontColor=#FF3333;" edge="1" parent="1">
          <mxGeometry relative="1" as="geometry">
            <mxPoint x="62" y="332" as="sourcePoint" />
            <mxPoint x="122" y="332" as="targetPoint" />
            <Array as="points">
              <mxPoint x="82" y="332" />
              <mxPoint x="82" y="332" />
            </Array>
          </mxGeometry>
        </mxCell>
        <mxCell id="ZkykrI-qIr06TGxrH-Ft-44" value="系统维护" style="rounded=1;whiteSpace=wrap;html=1;strokeColor=#7F00FF;" vertex="1" parent="1">
          <mxGeometry x="190" y="629" width="100" height="50" as="geometry" />
        </mxCell>
        <mxCell id="ZkykrI-qIr06TGxrH-Ft-46" value="产品设计" style="rounded=1;whiteSpace=wrap;html=1;strokeColor=#7F00FF;" vertex="1" parent="1">
          <mxGeometry x="360" y="630" width="100" height="50" as="geometry" />
        </mxCell>
        <mxCell id="ZkykrI-qIr06TGxrH-Ft-47" value="运营策划" style="rounded=1;whiteSpace=wrap;html=1;strokeColor=#7F00FF;" vertex="1" parent="1">
          <mxGeometry x="520" y="630" width="100" height="50" as="geometry" />
        </mxCell>
      </root>
    </mxGraphModel>
  </diagram>
</mxfile>
